{
    "asset" : {
        "generator" : "Khronos glTF Blender I/O v3.2.43",
        "version" : "2.0"
    },
    "scene" : 0,
    "scenes" : [
        {
            "name" : "Scene",
            "nodes" : [
                0
            ]
        }
    ],
    "nodes" : [
        {
            "mesh" : 0,
            "name" : "Cube.003",
            "scale" : [
                0.14999985694885254,
                0.009999990463256836,
                0.2249997854232788
            ],
            "translation" : [
                1,
                0.009999999776482582,
                -1
            ]
        }
    ],
    "materials" : [
        {
            "doubleSided" : true,
            "name" : "Paper",
            "pbrMetallicRoughness" : {
                "baseColorFactor" : [
                    0.8000000715255737,
                    0.5320001244544983,
                    0.40000003576278687,
                    1
                ],
                "metallicFactor" : 0,
                "roughnessFactor" : 0.4000000059604645
            }
        },
        {
            "doubleSided" : true,
            "name" : "Cover",
            "pbrMetallicRoughness" : {
                "baseColorFactor" : [
                    0.04981272295117378,
                    0.16481958329677582,
                    0.008627784438431263,
                    1
                ],
                "metallicFactor" : 0,
                "roughnessFactor" : 0.5
            }
        },
        {
            "doubleSided" : true,
            "name" : "Binding",
            "pbrMetallicRoughness" : {
                "baseColorFactor" : [
                    0.009999999776482582,
                    0.009999999776482582,
                    0.009999999776482582,
                    1
                ],
                "metallicFactor" : 0,
                "roughnessFactor" : 0.5
            }
        }
    ],
    "meshes" : [
        {
            "name" : "Cube.003",
            "primitives" : [
                {
                    "attributes" : {
                        "POSITION" : 0,
                        "NORMAL" : 1,
                        "TEXCOORD_0" : 2
                    },
                    "indices" : 3,
                    "material" : 0
                },
                {
                    "attributes" : {
                        "POSITION" : 4,
                        "NORMAL" : 5,
                        "TEXCOORD_0" : 6
                    },
                    "indices" : 7,
                    "material" : 1
                },
                {
                    "attributes" : {
                        "POSITION" : 8,
                        "NORMAL" : 9,
                        "TEXCOORD_0" : 10
                    },
                    "indices" : 11,
                    "material" : 2
                }
            ]
        }
    ],
    "accessors" : [
        {
            "bufferView" : 0,
            "componentType" : 5126,
            "count" : 92,
            "max" : [
                1.986641764640808,
                -3.5762786865234375e-07,
                0.9899998903274536
            ],
            "min" : [
                -1.986641764640808,
                -0.8250002264976501,
                -0.9899998307228088
            ],
            "type" : "VEC3"
        },
        {
            "bufferView" : 1,
            "componentType" : 5126,
            "count" : 92,
            "type" : "VEC3"
        },
        {
            "bufferView" : 2,
            "componentType" : 5126,
            "count" : 92,
            "type" : "VEC2"
        },
        {
            "bufferView" : 3,
            "componentType" : 5123,
            "count" : 240,
            "type" : "SCALAR"
        },
        {
            "bufferView" : 4,
            "componentType" : 5126,
            "count" : 148,
            "max" : [
                2.0000009536743164,
                -0.8250002264976501,
                1
            ],
            "min" : [
                -2.0000009536743164,
                -1,
                -1
            ],
            "type" : "VEC3"
        },
        {
            "bufferView" : 5,
            "componentType" : 5126,
            "count" : 148,
            "type" : "VEC3"
        },
        {
            "bufferView" : 6,
            "componentType" : 5126,
            "count" : 148,
            "type" : "VEC2"
        },
        {
            "bufferView" : 7,
            "componentType" : 5123,
            "count" : 402,
            "type" : "SCALAR"
        },
        {
            "bufferView" : 8,
            "componentType" : 5126,
            "count" : 18421,
            "max" : [
                0.09665132313966751,
                1.449997901916504,
                0.9882047176361084
            ],
            "min" : [
                -0.09668213129043579,
                -1.4500017166137695,
                -0.9865773916244507
            ],
            "type" : "VEC3"
        },
        {
            "bufferView" : 9,
            "componentType" : 5126,
            "count" : 18421,
            "type" : "VEC3"
        },
        {
            "bufferView" : 10,
            "componentType" : 5126,
            "count" : 18421,
            "type" : "VEC2"
        },
        {
            "bufferView" : 11,
            "componentType" : 5123,
            "count" : 76152,
            "type" : "SCALAR"
        }
    ],
    "bufferViews" : [
        {
            "buffer" : 0,
            "byteLength" : 1104,
            "byteOffset" : 0
        },
        {
            "buffer" : 0,
            "byteLength" : 1104,
            "byteOffset" : 1104
        },
        {
            "buffer" : 0,
            "byteLength" : 736,
            "byteOffset" : 2208
        },
        {
            "buffer" : 0,
            "byteLength" : 480,
            "byteOffset" : 2944
        },
        {
            "buffer" : 0,
            "byteLength" : 1776,
            "byteOffset" : 3424
        },
        {
            "buffer" : 0,
            "byteLength" : 1776,
            "byteOffset" : 5200
        },
        {
            "buffer" : 0,
            "byteLength" : 1184,
            "byteOffset" : 6976
        },
        {
            "buffer" : 0,
            "byteLength" : 804,
            "byteOffset" : 8160
        },
        {
            "buffer" : 0,
            "byteLength" : 221052,
            "byteOffset" : 8964
        },
        {
            "buffer" : 0,
            "byteLength" : 221052,
            "byteOffset" : 230016
        },
        {
            "buffer" : 0,
            "byteLength" : 147368,
            "byteOffset" : 451068
        },
        {
            "buffer" : 0,
            "byteLength" : 152304,
            "byteOffset" : 598436
        }
    ],
    "buffers" : [
        {
            "byteLength" : 750740,
            "uri" : "data:application/octet-stream;base64,"
        }
    ]
}
